<svg xmlns="http://www.w3.org/2000/svg" xmlns:xlink="http://www.w3.org/1999/xlink" width="1080" zoomAndPan="magnify" viewBox="0 0 810 809.999993" height="1080" preserveAspectRatio="xMidYMid meet" version="1.0"><defs><clipPath id="1e0e5de100"><path d="M 16.222656 99 L 793.972656 99 L 793.972656 710.886719 L 16.222656 710.886719 Z M 16.222656 99 " clip-rule="nonzero"/></clipPath></defs><g clip-path="url(#1e0e5de100)"><path fill="#eaa327" d="M 90.160156 489.144531 L 64.8125 514.476562 L 210.285156 659.957031 L 355.757812 514.476562 L 330.410156 489.144531 L 210.285156 609.191406 Z M 210.285156 271.972656 L 379 440.582031 L 355.855469 463.710938 L 404.449219 512.273438 L 402.242188 514.476562 L 404.449219 516.679688 L 210.285156 710.71875 L 16.222656 516.679688 L 18.425781 514.476562 L 16.222656 512.273438 L 64.8125 463.710938 L 41.570312 440.582031 Z M 210.285156 99.058594 L 502.53125 390.421875 L 793.972656 99.058594 L 793.972656 681.785156 L 697.894531 681.785156 L 697.894531 333.648438 L 502.53125 528.09375 L 210.285156 234.527344 Z M 210.285156 99.058594 " fill-opacity="1" fill-rule="evenodd"/></g></svg>