<svg xmlns="http://www.w3.org/2000/svg" xmlns:xlink="http://www.w3.org/1999/xlink" width="500" zoomAndPan="magnify" viewBox="0 0 375 374.999991" height="500" preserveAspectRatio="xMidYMid meet" version="1.0"><defs><g/><clipPath id="87f0b9b57b"><path d="M 0 148.640625 L 99 148.640625 L 99 226.640625 L 0 226.640625 Z M 0 148.640625 " clip-rule="nonzero"/></clipPath></defs><g clip-path="url(#87f0b9b57b)"><path fill="#eaa327" d="M 9.410156 198.378906 L 6.183594 201.605469 L 24.703125 220.148438 L 43.21875 201.605469 L 39.992188 198.378906 L 24.703125 213.679688 Z M 24.703125 170.699219 L 46.179688 192.1875 L 43.230469 195.136719 L 49.417969 201.324219 L 49.136719 201.605469 L 49.417969 201.886719 L 24.703125 226.617188 L 0 201.886719 L 0.28125 201.605469 L 0 201.324219 L 6.183594 195.136719 L 3.226562 192.1875 Z M 24.703125 148.660156 L 61.902344 185.796875 L 99 148.660156 L 99 222.929688 L 86.769531 222.929688 L 86.769531 178.558594 L 61.902344 203.34375 L 24.703125 165.925781 Z M 24.703125 148.660156 " fill-opacity="1" fill-rule="evenodd"/></g><g fill="#ffffff" fill-opacity="1"><g transform="translate(108.376646, 197.936031)"><g><path d="M 5.007812 0 L 11.722656 0 L 11.722656 -29.089844 L 21.355469 -3.386719 L 28.125 -3.386719 L 37.757812 -29.089844 L 37.757812 0 L 44.472656 0 L 44.472656 -38.886719 L 35.0625 -38.886719 L 24.742188 -11.230469 L 14.421875 -38.886719 L 5.007812 -38.886719 Z M 5.007812 0 "/></g></g></g><g fill="#ffffff" fill-opacity="1"><g transform="translate(157.848469, 197.936031)"><g><path d="M 5.007812 0 L 12 0 L 12 -38.886719 L 5.007812 -38.886719 Z M 5.007812 0 "/></g></g></g><g fill="#ffffff" fill-opacity="1"><g transform="translate(174.852689, 197.936031)"><g><path d="M 5.007812 0 L 11.722656 0 L 11.722656 -27.273438 L 28.015625 0 L 35.007812 0 L 35.007812 -38.886719 L 28.292969 -38.886719 L 28.292969 -11.667969 L 11.945312 -38.886719 L 5.007812 -38.886719 Z M 5.007812 0 "/></g></g></g><g fill="#ffffff" fill-opacity="1"><g transform="translate(214.859381, 197.936031)"><g><path d="M 5.007812 0 L 16.238281 0 C 29.308594 0 36.519531 -7.046875 36.519531 -19.15625 C 36.519531 -31.785156 29.53125 -38.886719 16.292969 -38.886719 L 5.007812 -38.886719 Z M 12 -6.414062 L 12 -32.476562 L 16.183594 -32.476562 C 25.761719 -32.476562 29.53125 -28.675781 29.53125 -19.457031 C 29.53125 -9.742188 24.136719 -6.414062 15.550781 -6.414062 Z M 12 -6.414062 "/></g></g></g><g fill="#ffffff" fill-opacity="1"><g transform="translate(253.627902, 197.936031)"><g><path d="M 16.128906 0.441406 C 23.558594 0.441406 29.640625 -3.992188 29.640625 -11.339844 C 29.640625 -24.246094 10.816406 -21.769531 10.816406 -29.089844 C 10.816406 -31.566406 12.960938 -33.246094 15.714844 -33.246094 C 18.328125 -33.246094 20.640625 -31.730469 21.988281 -29.089844 L 27.796875 -32.640625 C 25.125 -37.375 20.75 -39.464844 15.960938 -39.464844 C 9.414062 -39.464844 3.824219 -35.613281 3.824219 -28.730469 C 3.824219 -16.074219 22.648438 -18.769531 22.648438 -10.707031 C 22.648438 -7.953125 20.394531 -5.75 16.238281 -5.75 C 12.109375 -5.75 8.667969 -7.898438 8.171875 -12.742188 L 1.238281 -10.980469 C 2.476562 -3.328125 9.246094 0.441406 16.128906 0.441406 Z M 16.128906 0.441406 "/></g></g></g><g fill="#ffffff" fill-opacity="1"><g transform="translate(284.912364, 197.936031)"><g><path d="M 5.007812 0 L 30.878906 0 L 30.878906 -6.605469 L 12 -6.605469 L 12 -16.238281 L 29.585938 -16.238281 L 29.585938 -22.648438 L 12 -22.648438 L 12 -32.476562 L 30.878906 -32.476562 L 30.878906 -38.886719 L 5.007812 -38.886719 Z M 5.007812 0 "/></g></g></g><g fill="#ffffff" fill-opacity="1"><g transform="translate(319.168437, 197.936031)"><g><path d="M 12.742188 0 L 19.734375 0 L 19.734375 -32.640625 L 31.898438 -32.640625 L 31.898438 -38.886719 L 0.550781 -38.886719 L 0.550781 -32.640625 L 12.742188 -32.640625 Z M 12.742188 0 "/></g></g></g><path stroke-linecap="butt" transform="matrix(0.75, 0, 0, 0.75, 117.644229, 214.717061)" fill="none" stroke-linejoin="miter" d="M 0.0004033 1.502252 L 237.469169 1.502252 " stroke="#ffffff" stroke-width="3" stroke-opacity="1" stroke-miterlimit="4"/></svg>